<?xml version="1.0" standalone="no"?>
<!DOCTYPE svg PUBLIC "-//W3C//DTD SVG 20010904//EN"
 "http://www.w3.org/TR/2001/REC-SVG-20010904/DTD/svg10.dtd">
<svg version="1.0" xmlns="http://www.w3.org/2000/svg"
 width="1280.000000pt" height="770.000000pt" viewBox="0 0 1280.000000 770.000000"
 preserveAspectRatio="xMidYMid meet">
<metadata>
Created by potrace 1.15, written by Peter Selinger 2001-2017
</metadata>
<g transform="translate(0.000000,770.000000) scale(0.100000,-0.100000)"
fill="#00bcd4" stroke="none">
<path d="M2467 7686 c-19 -49 6 -141 47 -175 24 -20 19 -31 -11 -31 -44 0
-113 -40 -144 -83 -39 -54 -38 -67 5 -60 41 6 96 -2 119 -20 14 -10 3 -12 -65
-13 -85 -1 -168 -23 -200 -51 -15 -13 -22 -12 -71 11 -91 45 -280 51 -377 12
-35 -14 -42 -13 -90 5 -67 26 -212 39 -306 28 -41 -4 -78 -10 -83 -13 -5 -3
-44 4 -87 15 -61 16 -117 22 -247 25 -93 2 -203 10 -246 18 -43 8 -132 18
-197 21 -65 4 -180 15 -254 25 -190 26 -260 32 -235 21 28 -14 396 -107 475
-121 36 -7 109 -27 162 -46 122 -42 195 -61 286 -74 43 -6 96 -22 132 -40 93
-47 202 -80 287 -86 67 -5 87 -12 146 -46 98 -58 223 -99 313 -102 59 -2 79
-7 97 -23 79 -73 234 -133 343 -133 l64 0 0 -77 c0 -43 7 -105 15 -138 19 -80
19 -109 -4 -153 -21 -41 -43 -170 -67 -397 -14 -139 -23 -195 -60 -395 -33
-180 -3 -341 82 -443 19 -23 24 -40 24 -89 0 -92 47 -168 105 -168 36 0 100
54 161 135 31 41 58 75 60 75 2 0 20 -18 41 -40 55 -57 85 -61 126 -17 42 44
73 129 104 282 13 66 33 139 45 163 23 49 79 98 157 137 30 15 79 50 108 78
55 52 135 163 148 205 4 14 13 22 23 20 29 -5 54 -76 73 -202 19 -132 51 -249
99 -372 70 -177 222 -429 332 -550 31 -35 68 -83 80 -106 25 -49 27 -91 13
-345 -9 -170 0 -239 42 -331 14 -31 32 -90 41 -133 14 -66 14 -89 4 -149 -15
-89 -32 -121 -128 -251 -152 -204 -340 -404 -477 -506 -31 -24 -83 -62 -114
-85 -63 -48 -159 -154 -196 -220 -25 -42 -29 -56 -63 -193 -71 -290 -246 -710
-409 -980 -138 -229 -185 -356 -185 -501 0 -70 4 -89 31 -142 16 -34 43 -72
59 -85 16 -14 40 -53 56 -93 59 -151 128 -272 221 -387 l55 -69 45 44 c57 56
162 188 190 240 51 95 52 260 1 333 -29 42 -92 84 -140 92 -46 7 -62 25 -54
57 8 33 123 175 153 189 28 12 28 17 3 87 -24 68 -26 182 -5 265 24 95 185
409 249 487 65 78 149 151 261 224 44 29 105 79 136 111 118 122 261 287 293
336 59 93 177 187 326 262 41 21 88 48 103 61 16 14 42 24 59 24 68 0 96 -29
268 -283 165 -243 284 -454 295 -525 37 -233 107 -387 254 -557 50 -57 61 -77
61 -105 0 -20 16 -68 36 -110 20 -41 42 -108 50 -148 8 -41 17 -78 20 -83 3
-5 14 -42 25 -81 11 -40 35 -92 53 -117 47 -66 56 -94 56 -166 0 -81 -27 -155
-81 -220 -46 -56 -69 -96 -69 -121 0 -9 -52 -95 -115 -190 -92 -138 -115 -179
-115 -207 0 -84 128 -126 380 -126 341 0 456 105 341 313 -22 41 -41 88 -41
103 0 48 33 87 104 124 54 28 70 42 87 76 46 96 35 153 -51 268 -80 106 -179
308 -234 475 -55 168 -104 406 -116 566 -5 67 -19 166 -31 220 -29 134 -104
365 -129 397 -11 14 -33 52 -48 84 l-27 58 0 280 0 280 26 3 c14 2 106 -17
205 -42 404 -101 666 -138 1084 -152 383 -12 747 43 1165 176 135 44 399 145
519 199 62 28 73 30 105 20 45 -15 61 -27 61 -48 0 -24 54 -133 98 -199 22
-31 76 -98 119 -148 l80 -90 7 -111 c11 -197 49 -367 101 -458 68 -120 71
-266 11 -585 -45 -235 -74 -353 -121 -490 -81 -232 -208 -427 -336 -516 -53
-37 -127 -137 -142 -193 -10 -36 -21 -51 -56 -75 -136 -95 -322 -240 -363
-284 -48 -52 -57 -77 -38 -113 39 -73 310 -136 505 -117 151 14 245 75 278
179 19 59 37 194 37 277 0 57 15 95 52 129 35 33 73 44 180 53 54 5 111 16
128 25 47 24 70 83 70 182 1 313 109 676 295 988 155 259 207 535 141 740 -14
44 -42 107 -62 140 -59 97 -64 108 -64 153 0 45 30 102 53 102 7 0 26 -19 42
-41 44 -60 210 -218 285 -271 71 -51 217 -126 296 -154 47 -16 52 -21 68 -68
12 -34 35 -66 71 -100 92 -89 194 -262 244 -415 37 -113 93 -440 116 -683 27
-276 64 -450 120 -565 43 -86 82 -123 132 -123 30 0 48 -10 102 -58 198 -176
310 -221 378 -153 42 41 54 89 60 241 5 121 -15 366 -33 415 -4 8 -27 1 -81
-26 -86 -43 -155 -58 -178 -39 -23 19 -18 58 11 83 56 47 64 60 64 104 0 42 0
43 -41 49 -109 18 -194 130 -245 324 -38 144 -47 253 -53 640 l-6 385 -27 55
c-35 70 -104 152 -194 228 -112 96 -156 174 -176 311 -23 155 13 333 114 565
277 638 298 1177 63 1659 -25 51 -45 96 -45 100 0 9 84 -2 144 -19 153 -43
271 -187 325 -395 27 -106 39 -228 46 -479 15 -507 94 -833 263 -1089 48 -72
151 -181 216 -229 28 -20 78 -58 111 -85 71 -57 234 -139 325 -164 48 -13 103
-18 215 -18 147 0 151 1 215 31 36 17 80 46 99 65 37 36 96 152 87 168 -4 5
-19 12 -36 16 -42 9 -138 75 -186 126 -199 218 -350 621 -498 1337 -26 123
-58 255 -73 295 -121 337 -348 555 -698 670 -182 60 -404 89 -660 85 l-181 -2
-44 31 c-110 75 -291 144 -475 182 -402 81 -1029 75 -1730 -19 -649 -86 -1064
-123 -1575 -140 -385 -12 -513 0 -684 64 -80 30 -188 99 -237 152 -21 22 -70
86 -110 144 -152 220 -402 542 -501 645 -264 277 -618 507 -945 614 -285 93
-638 141 -1051 141 l-173 0 -82 39 c-94 46 -183 68 -301 77 -73 6 -84 5 -89
-10z"/>
</g>
</svg>
