<?xml version="1.0" standalone="no"?>
<!DOCTYPE svg PUBLIC "-//W3C//DTD SVG 20010904//EN"
 "http://www.w3.org/TR/2001/REC-SVG-20010904/DTD/svg10.dtd">
<svg version="1.0" xmlns="http://www.w3.org/2000/svg"
 width="2000.000000pt" height="2000.000000pt" viewBox="0 0 2000.000000 2000.000000"
 preserveAspectRatio="xMidYMid meet">
<metadata>
Created by potrace 1.15, written by Peter Selinger 2001-2017
</metadata>
<g transform="translate(0.000000,2000.000000) scale(0.100000,-0.100000)"
fill="#000000" stroke="none">
<path d="M12790 17135 l0 -295 -275 0 -275 0 0 260 c0 143 -2 260 -4 260 -2 0
-23 -7 -46 -15 -88 -31 -206 -14 -277 41 l-33 25 0 -285 0 -286 -62 0 c-134 0
-255 -56 -353 -162 l-63 -68 -306 0 -306 0 30 -42 c43 -62 64 -153 51 -223 -6
-30 -15 -64 -21 -75 -11 -20 -7 -20 240 -20 l250 0 0 -275 0 -275 -286 0 -286
0 16 -22 c68 -93 84 -216 41 -320 -7 -17 9 -18 254 -18 l261 0 0 -300 0 -300
-260 0 c-143 0 -260 -3 -260 -6 0 -3 11 -20 24 -37 52 -70 70 -182 41 -262 -8
-22 -15 -43 -15 -47 0 -5 106 -8 235 -8 l235 0 0 -320 0 -320 -250 0 c-137 0
-250 -4 -250 -8 0 -5 9 -17 20 -27 52 -47 76 -198 45 -284 l-14 -41 224 0 225
0 0 -360 0 -360 -242 0 -241 0 20 -22 c58 -64 82 -168 59 -259 -9 -33 -16 -65
-16 -70 0 -5 89 -9 210 -9 l210 0 0 -248 c0 -267 5 -303 57 -407 37 -72 135
-165 214 -202 81 -38 156 -53 271 -53 l88 0 0 -200 c0 -110 2 -200 4 -200 2 0
20 7 39 15 41 17 135 20 187 5 20 -5 57 -23 83 -40 l47 -30 0 225 0 225 355 0
355 0 0 -210 c0 -115 3 -210 8 -210 4 0 25 7 47 15 80 28 187 13 266 -39 l39
-26 0 235 0 235 325 0 325 0 0 -224 0 -225 33 13 c85 36 202 23 278 -29 19
-14 38 -25 42 -25 4 0 7 110 7 245 l0 245 295 0 295 0 0 -245 c0 -135 4 -245
9 -245 5 0 28 7 51 15 80 28 182 13 261 -39 l39 -26 0 270 0 270 275 0 275 0
0 -235 c0 -129 2 -235 4 -235 2 0 23 7 46 15 88 31 206 14 277 -41 l33 -25 0
260 0 261 34 0 c165 0 345 109 425 259 49 93 61 167 61 404 l0 207 210 0 c116
0 210 1 210 3 0 2 -7 25 -16 51 -23 66 -15 156 19 223 15 28 31 54 37 58 33
20 -9 25 -225 25 l-235 0 0 355 0 355 224 0 225 0 -16 38 c-25 57 -22 165 6
229 13 29 29 58 37 64 8 6 14 15 14 20 0 5 -110 9 -245 9 l-245 0 0 320 0 320
235 0 c129 0 235 1 235 3 0 1 -7 20 -15 42 -31 87 -13 211 41 282 l25 33 -260
0 -261 0 0 300 0 300 255 0 c140 0 255 2 255 4 0 2 -7 32 -16 67 -10 40 -14
78 -9 108 8 53 41 135 61 152 8 6 14 15 14 20 0 5 -126 9 -280 9 l-280 0 0
275 0 275 246 0 c223 0 246 2 240 16 -42 110 -27 230 40 322 l16 22 -293 0
-294 0 -35 56 c-92 148 -241 224 -437 224 l-93 0 0 225 c0 124 -1 225 -2 225
-2 0 -21 -7 -43 -15 -47 -17 -135 -19 -185 -5 -20 5 -57 23 -83 40 l-47 30 0
-250 0 -250 -355 0 -355 0 0 235 c0 129 -4 235 -9 235 -5 0 -28 -7 -51 -15
-80 -28 -182 -13 -261 39 l-39 26 0 -260 0 -260 -325 0 -325 0 0 249 0 250
-32 -13 c-86 -36 -200 -23 -280 29 -21 14 -40 25 -43 25 -3 0 -5 -121 -5 -270
l0 -270 -295 0 -295 0 0 271 0 271 -22 -6 c-88 -26 -130 -30 -185 -18 -32 7
-79 25 -105 42 l-48 29 0 -294z m1381 -1008 c99 -65 104 -257 9 -314 l-29 -17
-3 -184 c-3 -168 -5 -185 -22 -198 -17 -12 -147 -14 -832 -14 l-813 0 -17 -35
c-32 -69 -106 -102 -201 -90 -95 12 -153 83 -153 185 0 62 18 106 59 145 30
28 39 30 117 34 77 3 88 1 123 -22 21 -14 46 -41 55 -61 l17 -36 770 0 770 0
-3 132 -3 132 -29 7 c-68 19 -106 81 -106 177 0 79 20 120 79 159 49 33 163
33 212 0z m1546 -993 c159 -55 277 -180 319 -339 11 -39 14 -198 14 -755 0
-779 0 -772 -63 -879 -69 -115 -200 -208 -328 -231 -36 -7 -573 -9 -1550 -8
l-1494 3 -57 22 c-128 49 -225 140 -285 268 l-28 60 -3 739 c-3 808 -4 794 56
896 75 131 204 217 356 240 28 4 715 7 1526 6 l1475 -1 62 -21z m280 -2254
c59 -36 90 -113 77 -197 -9 -59 -41 -104 -94 -130 -97 -49 -223 -11 -260 78
l-12 29 -769 0 -769 0 0 -135 c0 -118 2 -135 16 -135 33 0 83 -41 104 -86 29
-58 25 -159 -6 -201 -41 -55 -80 -73 -158 -73 -128 0 -186 56 -186 180 0 78
21 126 67 155 l32 20 1 178 c0 163 2 179 20 197 20 20 33 20 833 20 l812 0 20
37 c33 62 75 83 164 83 58 0 84 -5 108 -20z"/>
<path d="M13019 14550 c-87 -10 -145 -37 -190 -87 -61 -68 -64 -85 -64 -413 0
-224 3 -304 14 -334 19 -55 73 -110 134 -137 50 -23 64 -24 305 -27 185 -2
257 0 268 9 21 17 20 222 -2 243 -13 13 -44 16 -188 16 -133 0 -177 3 -192 14
-17 13 -19 30 -22 192 -2 97 -1 188 2 200 13 51 25 54 207 54 98 0 179 4 190
10 17 10 19 22 19 125 0 152 11 145 -230 144 -102 -1 -215 -5 -251 -9z"/>
<path d="M13741 14541 c-21 -21 -21 -26 -21 -480 0 -275 4 -470 10 -485 l10
-26 144 0 c133 0 146 2 156 19 5 11 10 74 10 140 l0 121 118 0 c196 0 291 38
341 135 25 48 26 56 26 230 0 202 -7 230 -79 293 -65 57 -110 64 -417 69 -271
5 -277 5 -298 -16z m473 -267 c20 -19 23 -153 4 -172 -7 -7 -44 -12 -95 -12
l-83 0 0 100 0 100 79 0 c59 0 84 -4 95 -16z"/>
<path d="M14759 14539 c-20 -20 -20 -28 -17 -412 3 -352 5 -396 21 -432 54
-119 167 -165 415 -165 221 0 343 42 399 137 l28 48 3 405 c1 249 -2 411 -8
420 -7 12 -37 16 -139 18 -187 5 -171 42 -171 -383 0 -318 -1 -345 -17 -353
-53 -28 -158 -25 -188 4 -13 13 -15 66 -15 359 l0 344 -22 15 c-17 12 -50 16
-145 16 -111 0 -125 -2 -144 -21z"/>
<path d="M4380 17095 l0 -295 -275 0 -275 0 0 260 c0 143 -2 260 -4 260 -2 0
-20 -7 -39 -15 -81 -34 -204 -14 -288 46 l-29 20 0 -284 0 -284 -82 -5 c-139
-9 -270 -77 -348 -181 l-35 -46 -307 -1 c-170 0 -308 -3 -308 -6 0 -3 12 -21
26 -39 51 -68 68 -182 39 -265 -8 -23 -15 -44 -15 -46 0 -2 110 -4 245 -4
l245 0 0 -275 0 -275 -280 0 c-154 0 -280 -2 -280 -5 0 -2 13 -25 30 -51 52
-83 59 -162 24 -281 l-6 -23 256 0 256 0 0 -300 0 -300 -260 0 -259 0 28 -42
c15 -24 33 -58 40 -77 15 -47 14 -150 -4 -200 l-14 -41 234 0 235 0 0 -320 0
-320 -245 0 c-135 0 -245 -2 -245 -5 0 -2 13 -25 30 -51 51 -82 59 -172 25
-281 l-7 -23 221 0 221 0 0 -360 0 -360 -235 0 -235 0 24 -37 c55 -84 69 -176
41 -269 -8 -27 -15 -50 -15 -51 0 -2 95 -3 210 -3 l210 0 0 -223 c0 -123 5
-250 11 -283 27 -148 128 -283 263 -349 85 -42 149 -55 267 -55 l89 0 0 -200
c0 -110 2 -200 4 -200 2 0 23 7 46 15 88 31 206 14 277 -41 l33 -25 0 225 0
226 360 0 360 0 0 -210 c0 -115 1 -210 3 -210 1 0 24 7 51 15 27 8 66 15 86
15 50 0 130 -25 174 -55 20 -14 39 -25 41 -25 3 0 5 106 5 235 l0 235 320 0
320 0 0 -225 0 -224 43 16 c63 23 161 20 224 -7 29 -12 58 -28 64 -36 6 -8 15
-14 20 -14 5 0 9 110 9 245 l0 245 300 0 300 0 0 -245 c0 -135 1 -245 3 -245
1 0 24 7 51 15 27 8 66 15 86 15 50 0 130 -25 174 -55 20 -14 39 -25 41 -25 3
0 5 122 5 270 l0 270 275 0 275 0 0 -235 c0 -129 1 -235 3 -235 1 0 20 7 42
15 84 30 195 14 278 -41 l37 -24 0 260 0 260 36 0 c159 0 338 109 415 253 53
99 59 139 59 390 l0 227 214 0 215 0 -16 38 c-35 82 -15 205 47 292 l21 30
-240 0 -241 0 0 355 0 355 226 0 c211 0 226 1 219 18 -43 104 -27 227 41 320
l16 22 -251 0 -251 0 0 320 0 320 235 0 c129 0 235 3 235 6 0 3 -7 31 -16 62
-26 89 -7 190 52 270 l16 22 -261 0 -261 0 0 300 0 300 260 0 c143 0 260 2
260 4 0 2 -7 23 -15 46 -30 85 -14 189 41 273 l24 37 -285 0 -285 0 0 275 0
275 250 0 249 0 -15 43 c-32 88 -14 211 42 284 l25 33 -298 0 -298 0 -14 31
c-23 51 -126 153 -189 187 -81 43 -161 62 -264 62 l-88 0 0 225 c0 124 -2 225
-4 225 -2 0 -23 -7 -46 -15 -89 -31 -228 -9 -286 46 l-24 22 0 -251 0 -252
-360 0 -360 0 0 235 c0 129 -1 235 -2 235 -2 0 -25 -7 -52 -15 -91 -28 -193
-12 -261 39 -18 14 -36 26 -39 26 -3 0 -6 -117 -6 -260 l0 -260 -320 0 -320 0
0 249 0 250 -37 -16 c-58 -25 -166 -22 -230 6 -29 13 -58 29 -64 37 -6 8 -15
14 -20 14 -5 0 -9 -121 -9 -270 l0 -270 -300 0 -300 0 0 270 c0 149 -1 270 -2
270 -2 0 -25 -7 -52 -15 -91 -28 -193 -12 -261 39 -18 14 -36 26 -39 26 -3 0
-6 -133 -6 -295z m1200 -3010 c0 -1392 -2 -1631 -14 -1660 -27 -64 -122 -98
-211 -76 -43 11 -46 10 -96 -28 -29 -22 -77 -52 -108 -68 -55 -28 -58 -28
-236 -28 -170 1 -184 2 -260 29 -259 89 -480 279 -622 536 -64 114 -113 275
-128 418 l-7 62 256 0 256 0 0 -350 0 -350 123 0 122 -1 20 -32 c63 -99 200
-112 285 -27 111 111 49 292 -106 316 -90 13 -182 -49 -206 -142 l-12 -44 -78
0 -78 0 0 350 0 350 -291 0 -291 0 7 63 c4 34 15 91 24 127 l16 65 312 3 312
2 3 127 3 127 35 10 c84 24 144 136 120 224 -20 78 -100 141 -178 142 -40 0
-99 -24 -131 -53 -29 -27 -61 -93 -61 -127 0 -73 50 -155 110 -180 l30 -12 0
-94 0 -94 -265 0 -264 0 20 46 c27 64 116 198 172 260 26 29 47 61 47 72 0 10
-11 50 -25 88 -24 65 -55 195 -55 229 0 13 36 15 299 15 l299 0 5 -27 c3 -16
17 -45 31 -66 l26 -38 -1 -282 0 -282 -42 -30 c-23 -17 -50 -47 -60 -68 -23
-45 -24 -124 -3 -165 16 -31 80 -92 96 -92 6 0 11 -95 12 -232 l3 -233 157 -3
156 -3 22 -45 c59 -121 232 -138 315 -30 50 65 47 171 -7 232 -42 47 -77 64
-137 64 -87 0 -142 -35 -176 -111 l-18 -39 -119 0 -118 0 0 194 0 194 32 6
c73 15 137 98 138 180 0 81 -64 162 -142 181 l-28 7 0 264 0 264 48 0 c90 0
166 68 178 162 9 61 -28 142 -81 177 -51 34 -129 40 -182 13 -43 -22 -87 -68
-98 -102 -6 -19 -15 -20 -307 -20 l-301 0 7 80 c6 80 27 159 62 238 l19 42
410 0 410 0 21 -49 c13 -28 37 -60 59 -77 34 -26 46 -29 111 -29 66 0 76 3
111 31 49 39 73 87 73 147 0 58 -22 108 -61 141 l-29 25 0 140 0 139 28 7 c39
8 102 62 118 101 19 46 17 122 -4 163 -29 59 -84 94 -150 99 -90 6 -154 -32
-187 -111 -40 -97 11 -216 108 -250 15 -6 17 -22 17 -137 l0 -130 -35 0 c-39
0 -101 -28 -126 -56 -9 -11 -24 -34 -33 -51 l-17 -33 -387 0 -387 1 58 54 c99
94 267 160 462 183 53 6 69 11 67 22 -39 169 -12 273 96 376 109 105 357 191
560 193 l72 1 0 -1625z m515 1571 c200 -51 358 -154 416 -271 20 -41 24 -65
24 -135 0 -47 -4 -99 -8 -116 l-8 -31 68 -7 c184 -17 379 -94 468 -185 l49
-51 -387 0 -387 0 -20 39 c-26 51 -66 79 -135 94 l-55 11 0 126 0 125 46 24
c60 32 94 89 94 160 0 169 -193 251 -311 132 -94 -94 -66 -241 57 -298 l54
-24 0 -134 0 -133 -39 -39 c-69 -68 -77 -164 -21 -241 74 -103 242 -96 306 14
13 22 24 48 24 57 0 16 35 17 414 17 l413 0 26 -58 c36 -79 56 -164 59 -242
l3 -65 -297 -3 -297 -2 -21 39 c-32 63 -81 94 -155 99 -51 3 -71 0 -102 -17
-54 -31 -86 -81 -91 -146 -9 -110 68 -196 179 -198 l49 -1 -2 -265 -3 -265
-35 -9 c-113 -29 -167 -167 -106 -271 25 -43 88 -86 125 -86 21 0 21 -3 21
-195 l0 -195 -124 0 c-121 0 -125 1 -131 23 -13 40 -57 89 -99 108 -52 23
-100 24 -151 0 -144 -65 -149 -264 -9 -331 95 -46 204 -8 249 88 l19 42 158 0
158 0 0 233 0 232 31 14 c40 17 86 81 94 130 13 76 -30 162 -96 197 l-29 15 0
288 c0 273 1 289 20 306 10 9 27 37 36 61 l17 44 292 0 c160 0 294 -2 297 -5
10 -11 -15 -134 -48 -235 -33 -101 -34 -105 -17 -126 10 -12 45 -55 78 -96 55
-67 145 -221 145 -247 0 -8 -75 -11 -262 -9 l-263 3 -3 97 c-3 93 -2 97 20
104 65 20 118 97 118 170 -1 55 -31 116 -76 150 -33 26 -46 29 -109 29 -63 0
-76 -3 -109 -29 -120 -91 -92 -271 49 -322 l30 -11 3 -126 3 -127 313 0 c290
0 314 -1 321 -17 14 -39 35 -157 35 -204 l0 -49 -285 0 -285 0 0 -345 0 -345
-83 0 -83 0 -12 47 c-44 162 -274 181 -343 29 -38 -85 -11 -184 64 -234 33
-22 52 -27 101 -27 72 0 123 26 156 81 l22 34 119 0 119 0 0 345 0 345 256 0
257 0 -6 -77 c-13 -165 -103 -390 -216 -540 -184 -244 -437 -399 -693 -424
-212 -20 -343 10 -455 106 -29 24 -43 30 -58 24 -33 -13 -133 -10 -169 5 -18
7 -42 26 -54 41 l-22 28 0 1645 0 1645 98 -6 c53 -3 142 -17 197 -31z m-756
-110 c27 -14 51 -53 51 -82 0 -29 -29 -71 -58 -83 -60 -25 -126 20 -126 86 0
27 7 42 32 64 36 32 60 36 101 15z m776 -20 c63 -26 75 -97 26 -147 -48 -48
-116 -38 -147 22 -25 49 2 112 56 132 23 8 28 8 65 -7z m-845 -613 c28 -16 50
-51 50 -79 0 -29 -30 -71 -59 -84 -88 -36 -165 72 -102 144 32 37 70 44 111
19z m915 -17 c60 -26 74 -92 29 -145 -64 -77 -190 -1 -155 92 9 24 63 67 84
67 4 0 23 -6 42 -14z m-1240 -410 c64 -27 77 -106 24 -150 -41 -35 -83 -34
-120 3 -48 49 -37 120 24 146 40 18 32 17 72 1z m1578 -36 c69 -55 24 -165
-66 -162 -22 1 -40 10 -59 32 -36 39 -36 79 -2 119 32 38 87 43 127 11z
m-1922 -333 c47 -36 51 -97 10 -138 -39 -38 -84 -39 -123 -2 -60 57 -23 153
59 153 21 0 45 -6 54 -13z m2290 -36 c38 -39 39 -80 0 -123 -22 -25 -36 -32
-66 -32 -47 0 -95 48 -95 95 0 45 47 89 95 89 27 0 44 -8 66 -29z m-1972 -515
c36 -36 32 -92 -9 -129 -27 -24 -39 -28 -68 -24 -43 8 -69 30 -77 69 -21 92
86 150 154 84z m1636 0 c96 -41 70 -176 -35 -176 -97 0 -125 137 -37 175 40
18 32 17 72 1z m-1200 -598 c15 -14 28 -38 31 -59 5 -30 1 -42 -22 -68 -68
-75 -185 -10 -153 86 19 60 96 82 144 41z m793 -34 c49 -55 6 -154 -67 -154
-46 0 -95 48 -95 93 0 86 105 125 162 61z m-1254 -235 c67 -79 -16 -186 -107
-137 -34 18 -46 39 -47 81 0 83 100 120 154 56z m1711 -11 c15 -14 28 -38 32
-60 5 -33 2 -41 -30 -73 -46 -46 -78 -46 -123 -1 -44 44 -46 86 -5 127 37 37
88 39 126 7z"/>
<path d="M4300 9215 l0 -295 -275 0 -275 0 0 260 c0 143 -2 260 -4 260 -2 0
-23 -7 -46 -15 -84 -30 -181 -17 -263 35 l-47 30 0 -285 0 -285 -68 0 c-82 0
-174 -28 -246 -74 -49 -32 -146 -129 -146 -147 0 -5 -136 -9 -311 -9 l-311 0
16 -22 c67 -92 82 -212 40 -322 -6 -14 17 -16 240 -16 l246 0 0 -275 0 -275
-280 0 c-154 0 -280 -4 -280 -9 0 -5 6 -14 14 -20 20 -17 53 -99 61 -152 5
-30 1 -68 -9 -108 -9 -35 -16 -65 -16 -67 0 -2 115 -4 255 -4 l255 0 0 -300 0
-300 -261 0 -260 0 25 -33 c14 -18 32 -53 41 -76 19 -56 19 -161 0 -208 -8
-19 -15 -37 -15 -39 0 -2 106 -4 235 -4 l235 0 0 -320 0 -320 -245 0 c-135 0
-245 -2 -245 -5 0 -2 13 -25 30 -51 52 -82 59 -161 24 -281 l-6 -23 221 0 221
0 0 -772 c0 -839 0 -840 56 -950 14 -28 49 -75 76 -104 104 -110 205 -152 386
-161 l112 -6 0 -198 0 -198 38 16 c57 24 166 22 229 -6 29 -13 58 -29 64 -37
6 -8 15 -14 20 -14 5 0 9 99 9 220 l0 220 360 0 360 0 0 -209 0 -210 46 16
c90 30 204 10 292 -53 l22 -16 0 236 0 236 320 0 320 0 0 -221 c0 -200 2 -221
16 -215 109 42 214 30 312 -34 l32 -22 0 246 0 246 300 0 300 0 0 -245 0 -244
41 14 c48 17 138 19 189 5 20 -5 57 -23 83 -40 l47 -30 0 270 0 270 275 0 275
0 0 -231 0 -231 23 6 c129 37 216 26 305 -41 l32 -24 0 260 c0 202 3 261 13
261 6 0 43 5 81 10 143 21 292 123 358 246 50 92 58 147 58 391 l0 223 211 0
211 0 -6 23 c-35 120 -28 199 24 281 17 26 30 49 30 51 0 3 -106 5 -235 5
l-235 0 0 355 0 355 225 0 c124 0 225 2 225 4 0 2 -7 20 -15 39 -19 47 -19
152 0 208 9 23 27 58 41 76 l25 33 -250 0 -251 0 0 325 0 325 235 0 c129 0
235 1 235 3 0 1 -7 20 -15 42 -29 83 -12 202 41 272 13 17 24 34 24 37 0 3
-117 6 -260 6 l-260 0 0 295 0 295 260 0 c143 0 260 2 260 4 0 2 -7 20 -15 39
-19 45 -19 159 -1 210 8 20 26 53 40 72 l27 35 -285 0 -286 0 0 275 0 275 245
0 c135 0 245 2 245 4 0 2 -7 33 -16 67 -24 94 -9 171 50 262 l18 27 -291 0
-290 0 -35 53 c-99 157 -234 227 -432 227 l-104 0 0 224 0 224 -47 -14 c-91
-27 -201 -11 -268 40 -18 14 -36 26 -39 26 -3 0 -6 -112 -6 -250 l0 -250 -355
0 -355 0 0 236 0 236 -22 -7 c-57 -17 -95 -25 -124 -25 -45 0 -126 26 -168 55
-20 14 -39 25 -41 25 -3 0 -5 -117 -5 -260 l0 -260 -320 0 -320 0 0 250 c0
138 -2 250 -4 250 -2 0 -20 -7 -39 -15 -58 -24 -172 -20 -233 9 -28 13 -55 29
-58 35 -22 35 -26 -9 -26 -259 l0 -270 -300 0 -300 0 0 270 c0 149 -3 270 -6
270 -3 0 -31 -7 -62 -16 -38 -11 -72 -14 -109 -10 -56 7 -134 38 -154 62 -6 8
-15 14 -20 14 -5 0 -9 -132 -9 -295z m1420 -1554 l0 -860 425 -363 424 -363 1
-376 0 -377 -55 -26 c-200 -98 -241 -364 -80 -520 64 -63 137 -89 235 -84 174
8 303 142 303 313 0 150 -96 275 -240 314 l-43 12 0 397 c0 218 -4 402 -8 408
-4 6 -195 171 -424 368 l-418 358 0 829 0 829 155 0 155 0 0 -619 c0 -531 2
-622 15 -634 10 -11 636 -475 663 -492 1 -1 -8 -24 -20 -51 -18 -39 -23 -67
-23 -134 1 -77 4 -91 35 -149 103 -192 354 -227 511 -71 122 121 118 332 -8
451 -21 20 -58 47 -83 60 -60 30 -171 37 -235 15 l-48 -16 -323 238 -323 237
0 583 -1 582 589 0 c569 0 591 -1 657 -21 38 -11 90 -34 115 -50 108 -69 196
-198 219 -320 7 -36 9 -700 8 -1964 l-3 -1910 -23 -57 c-55 -136 -155 -240
-280 -290 l-57 -23 -715 -3 -715 -3 3 148 c2 82 12 436 21 788 9 352 13 651 9
663 -5 13 -57 74 -116 134 -59 61 -120 125 -136 142 -32 34 -192 201 -356 371
-58 61 -154 160 -213 221 l-107 112 0 270 0 270 51 11 c146 32 249 158 249
307 0 104 -22 158 -94 229 -71 70 -130 95 -223 95 -124 0 -223 -60 -283 -172
-31 -56 -34 -71 -34 -143 -1 -103 26 -165 99 -235 30 -27 59 -50 64 -50 8 0
11 -102 11 -322 l0 -323 35 -39 c19 -22 83 -90 143 -150 59 -61 202 -210 318
-331 116 -121 257 -269 315 -328 57 -60 108 -116 112 -124 8 -13 -13 -1043
-29 -1400 l-6 -143 -262 0 -261 0 17 617 c9 340 17 693 17 785 l1 167 -122
128 c-68 70 -181 189 -253 263 -71 74 -175 182 -231 240 -55 58 -150 157 -212
220 l-112 115 0 417 0 416 38 12 c88 29 169 105 204 192 10 25 17 72 17 110 2
131 -61 233 -176 290 -58 28 -77 33 -143 32 -126 0 -230 -67 -287 -183 -37
-74 -39 -190 -6 -262 28 -63 87 -126 145 -155 l48 -24 0 -455 0 -454 112 -118
c62 -64 122 -127 133 -138 11 -12 74 -77 140 -146 66 -68 208 -216 315 -328
107 -113 203 -213 213 -224 18 -18 18 -38 3 -655 -9 -351 -19 -688 -22 -749
l-6 -113 -283 0 -283 0 4 108 c8 201 34 1247 34 1354 l0 107 -128 133 c-71 73
-141 147 -158 164 -43 46 -423 442 -541 564 l-103 105 0 498 c0 465 1 498 18
503 145 46 231 151 240 294 5 101 -22 175 -89 242 -69 69 -125 92 -224 92 -71
1 -88 -3 -148 -32 -51 -26 -77 -46 -106 -85 -54 -74 -66 -110 -66 -202 0 -67
4 -89 28 -137 31 -63 100 -131 153 -150 l34 -12 0 -539 0 -540 93 -96 c51 -53
145 -150 207 -215 63 -66 126 -131 140 -145 13 -14 123 -129 244 -256 121
-126 227 -235 234 -240 11 -9 11 -109 -2 -620 -9 -336 -19 -674 -22 -752 l-6
-143 -427 0 c-251 0 -444 5 -470 11 -160 36 -303 175 -347 336 -18 65 -19 144
-19 1983 l0 1915 23 65 c58 160 176 272 335 315 43 11 228 14 1080 14 l1027 1
0 -859z m-1905 200 c16 -9 40 -35 52 -57 88 -154 -112 -312 -241 -191 -68 65
-70 161 -5 226 52 52 127 61 194 22z m736 -165 c96 -66 90 -195 -11 -264 -29
-20 -44 -23 -88 -20 -203 17 -190 308 13 308 37 0 60 -7 86 -24z m719 -237
c122 -69 98 -251 -38 -289 -80 -22 -174 35 -192 116 -31 134 110 240 230 173z
m1918 -736 c69 -52 89 -129 53 -202 -50 -97 -174 -117 -250 -40 -105 104 -25
278 122 266 27 -2 60 -13 75 -24z m-468 -1575 c66 -34 93 -79 88 -148 -5 -64
-26 -99 -79 -129 -46 -26 -91 -27 -143 -1 -57 28 -79 63 -84 130 -3 45 0 61
20 90 24 36 97 80 133 80 11 0 41 -10 65 -22z"/>
<path d="M15340 9324 c-74 -51 -177 -66 -266 -39 -27 8 -50 15 -51 15 -2 0 -3
-121 -3 -270 l0 -270 -300 0 -300 0 0 271 0 271 -27 -18 c-91 -59 -168 -74
-262 -50 -34 9 -65 16 -67 16 -2 0 -4 -110 -4 -245 l0 -245 -320 0 -320 0 0
261 0 261 -22 -16 c-92 -67 -212 -82 -322 -40 -14 6 -16 -16 -16 -230 l0 -236
-355 0 -355 0 0 251 0 251 -22 -16 c-62 -45 -123 -66 -193 -65 -38 0 -87 6
-107 13 l-38 14 0 -224 0 -224 -98 0 c-155 0 -262 -40 -363 -137 -31 -29 -67
-74 -80 -98 l-24 -45 -292 0 c-162 0 -293 -4 -293 -9 0 -5 6 -14 14 -20 20
-17 53 -99 61 -152 5 -30 1 -68 -9 -108 -9 -35 -16 -65 -16 -67 0 -2 110 -4
245 -4 l245 0 0 -275 0 -275 -286 0 -285 0 25 -33 c54 -71 73 -197 41 -286
l-14 -41 259 0 260 0 0 -300 0 -300 -260 0 -260 0 30 -47 c52 -82 63 -166 35
-259 -8 -27 -15 -50 -15 -51 0 -2 106 -3 235 -3 l235 0 0 -320 0 -320 -250 0
-249 0 28 -42 c15 -24 33 -58 40 -77 15 -47 14 -150 -4 -200 l-14 -41 224 0
225 0 0 -355 0 -355 -235 0 c-129 0 -235 -2 -235 -5 0 -2 13 -25 30 -51 51
-81 61 -196 25 -286 -7 -17 7 -18 203 -18 l210 0 4 -247 c3 -228 5 -252 26
-304 70 -175 230 -296 417 -315 l65 -7 0 -259 0 -259 29 20 c84 60 199 78 290
46 l41 -14 0 234 0 235 275 0 275 0 0 -270 c0 -148 3 -270 6 -270 3 0 21 12
39 26 67 51 188 68 270 39 22 -8 41 -15 43 -15 1 0 2 110 2 245 l0 245 300 0
300 0 0 -245 c0 -135 4 -245 9 -245 5 0 14 6 20 14 17 20 99 53 152 61 30 5
68 1 108 -9 35 -9 65 -16 67 -16 2 0 4 99 4 220 l0 220 320 0 320 0 0 -235 c0
-129 3 -235 6 -235 3 0 21 12 39 26 67 51 188 68 270 39 22 -8 41 -15 43 -15
1 0 2 95 2 210 l0 210 360 0 360 0 0 -226 0 -225 33 25 c18 14 53 32 76 41 56
19 161 19 208 0 19 -8 37 -15 39 -15 2 0 4 90 4 200 l0 200 89 0 c119 0 182
13 269 56 132 64 236 201 262 343 6 33 10 353 10 822 l0 769 221 0 221 0 -7
23 c-34 109 -26 199 25 281 17 26 30 49 30 51 0 3 -110 5 -245 5 l-245 0 0
320 0 320 235 0 234 0 -14 41 c-32 89 -13 215 41 286 l25 33 -260 0 -261 0 0
300 0 300 256 0 256 0 -6 23 c-35 120 -28 199 24 281 17 26 30 49 30 51 0 3
-126 5 -280 5 l-280 0 0 275 0 275 245 0 c135 0 245 1 245 3 0 1 -7 20 -15 42
-29 82 -12 203 39 270 14 18 26 36 26 39 0 3 -138 6 -307 7 l-308 0 -41 52
c-81 104 -201 165 -341 174 l-83 6 0 284 0 284 -33 -25 c-71 -54 -197 -73
-286 -41 l-41 14 0 -259 0 -260 -275 0 -275 0 -2 294 -3 294 -35 -24z m715
-979 c196 -51 335 -203 365 -400 7 -48 10 -666 8 -1955 l-3 -1885 -23 -59
c-31 -84 -63 -134 -119 -189 -55 -56 -105 -88 -189 -119 l-59 -23 -1885 -3
c-1289 -2 -1907 1 -1955 8 -150 23 -298 127 -358 252 -60 123 -57 -2 -57 2063
0 2060 -3 1951 56 2067 34 67 135 168 202 202 113 57 8 54 2062 55 1671 1
1903 -1 1955 -14z"/>
<path d="M12110 7850 l0 -120 924 0 c906 0 925 0 931 19 9 31 71 79 114 91
170 46 297 -162 180 -294 -98 -112 -268 -70 -313 77 -5 16 -58 17 -921 17
l-915 0 0 -128 0 -129 663 -6 c364 -4 695 -10 735 -14 l72 -6 0 -347 0 -346
29 -22 c90 -66 39 -212 -74 -212 -113 0 -164 146 -74 212 l29 22 0 302 c0 174
-4 305 -9 309 -5 3 -316 8 -690 12 l-681 6 0 -226 0 -227 370 0 370 0 0 -370
0 -370 199 0 199 0 6 35 c9 46 58 101 103 116 108 35 214 -36 215 -146 3 -149
-180 -221 -281 -111 l-24 26 -254 0 -253 0 0 365 0 365 -325 0 -325 0 0 -930
0 -930 530 0 530 0 0 -144 0 -144 37 -19 c48 -23 83 -75 83 -122 0 -141 -179
-198 -258 -81 -35 51 -28 128 16 173 32 33 32 33 32 140 l0 107 -485 0 -485 0
0 -365 0 -365 1950 0 1950 0 0 120 0 120 -345 0 -345 0 0 285 0 285 -343 0
-343 0 -12 -44 c-29 -110 -169 -152 -256 -76 -44 39 -60 79 -54 139 9 88 68
141 159 141 48 0 105 -25 120 -51 9 -18 29 -19 414 -19 l405 0 0 -285 0 -285
300 0 300 0 0 1130 0 1130 -235 0 -235 0 0 -345 0 -345 -182 0 c-140 -1 -189
-4 -208 -15 -69 -39 -150 6 -150 83 0 51 30 89 77 98 51 10 98 -15 114 -60
l13 -36 128 0 128 0 0 350 0 350 275 0 275 0 0 145 0 145 -320 0 -320 0 0 175
c0 169 -1 175 -25 211 -29 42 -31 73 -9 119 34 73 142 87 197 25 22 -25 27
-40 27 -81 0 -43 -5 -55 -29 -80 -16 -16 -43 -32 -60 -35 l-31 -6 0 -124 0
-124 285 0 285 0 0 285 0 285 -525 0 -525 0 0 -695 0 -695 -269 0 -269 0 -7
-28 c-9 -43 -72 -99 -127 -113 -154 -41 -284 141 -194 274 27 40 76 73 121 81
70 13 157 -30 191 -95 l15 -29 224 0 225 0 0 695 0 695 570 0 570 0 0 100 0
100 -1950 0 -1950 0 0 -120z m3216 -2065 c29 -8 62 -28 79 -45 l30 -31 3 -187
c3 -209 -4 -240 -63 -274 -49 -28 -163 -41 -246 -29 -78 13 -114 28 -144 61
-18 20 -20 39 -23 198 -2 97 -1 191 3 208 8 43 48 81 104 98 61 19 195 20 257
1z m-2534 -12 c8 -10 30 -46 49 -81 21 -39 39 -61 49 -60 8 2 32 34 53 73 21
38 43 73 50 77 20 13 152 9 165 -4 14 -14 17 -514 3 -536 -5 -9 -30 -12 -87
-10 l-79 3 -3 145 -3 145 -29 -53 c-28 -48 -33 -52 -68 -52 -47 0 -54 5 -83
60 l-24 45 -3 -148 -3 -148 -82 3 -82 3 -3 265 c-1 146 0 270 3 277 3 9 29 13
83 13 63 0 82 -4 94 -17z m886 5 c12 -12 16 -95 6 -122 -4 -12 -20 -16 -55
-16 l-49 0 0 -130 0 -130 43 0 c55 0 67 -13 67 -71 0 -83 11 -79 -201 -79
l-189 0 0 69 c0 76 4 81 66 81 l34 0 0 130 0 130 -50 0 -50 0 0 68 c0 38 3 72
7 75 12 13 358 8 371 -5z m542 -7 c11 -22 14 -90 4 -115 -5 -13 -24 -16 -104
-16 -129 0 -130 -1 -130 -130 0 -54 3 -105 6 -114 5 -13 24 -16 110 -16 117 0
124 -4 124 -79 0 -73 4 -71 -154 -71 -117 0 -148 4 -183 19 -70 32 -78 58 -78
256 0 184 6 210 56 248 38 28 80 35 216 36 111 1 123 -1 133 -18z m513 -1 c16
-8 35 -26 43 -41 19 -38 18 -148 -1 -176 -14 -20 -14 -22 5 -28 11 -3 29 -18
40 -32 18 -23 20 -40 20 -144 l0 -119 -85 0 c-97 0 -93 -5 -97 110 l-3 65 -62
3 -62 3 -3 -88 -3 -88 -85 0 -85 0 -3 264 c-2 194 1 267 10 278 16 20 329 14
371 -7z"/>
<path d="M15157 5643 c-16 -4 -17 -17 -15 -136 l3 -132 55 0 55 0 3 131 c3
129 2 132 -20 138 -25 6 -54 6 -81 -1z"/>
</g>
</svg>
