<?xml version="1.0"?>
<svg width="640" height="480" xmlns="http://www.w3.org/2000/svg" xmlns:svg="http://www.w3.org/2000/svg">
 <!-- Created with SVG-edit - https://github.com/SVG-Edit/svgedit-->
 <g class="layer">
  <title>Layer 1</title>
  <text fill="#000000" font-family="Monospace" font-size="24" id="svg_7" stroke="#000000" stroke-dasharray="null" stroke-linecap="null" stroke-linejoin="null" stroke-width="0" text-anchor="middle" transform="matrix(21.2009 0 0 1.97825 -3962.84 -172.279)" x="201.5" xml:space="preserve" y="197.5"/>
  <text fill="#000000" font-family="Monospace" font-size="24" id="svg_10" stroke="#000000" stroke-dasharray="null" stroke-linecap="null" stroke-linejoin="null" stroke-width="0" text-anchor="middle" transform="matrix(6.59811 0 0 0.714604 -1125.83 25.5563)" x="194.5" xml:space="preserve" y="83.5"/>
  <text fill="#ffffff" font-family="Monospace" font-size="24" id="svg_11" stroke="#000000" stroke-dasharray="null" stroke-linecap="null" stroke-linejoin="null" stroke-width="0" text-anchor="middle" transform="matrix(11.9862 0 0 1 -2378.51 0)" x="216.5" xml:space="preserve" y="110.5"/>
  <polygon fill="#7f00ff" id="svg_17" points="150.5,73.5 150.5,73.5 150.5,73.5 150.5,73.5 150.5,73.5 150.5,73.5 150.5,73.5 150.5,73.5 150.5,73.5 150.5,73.5 150.5,73.5 150.5,73.5 " stroke="#000000" stroke-width="5"/>
  <polygon fill="#7f00ff" id="svg_18" points="191.5,32.5 191.5,32.5 191.5,32.5 191.5,32.5 191.5,32.5 191.5,32.5 191.5,32.5 191.5,32.5 191.5,32.5 191.5,32.5 191.5,32.5 191.5,32.5 " stroke="#000000" stroke-width="5"/>
  <polygon fill="#7f00ff" id="svg_21"/>
  <polygon fill="#7f00ff" id="svg_22" points="110.5,14.5 110.5,14.5 110.5,14.5 110.5,14.5 110.5,14.5 110.5,14.5 110.5,14.5 110.5,14.5 110.5,14.5 110.5,14.5 110.5,14.5 110.5,14.5 " stroke-width="5"/>
  <polygon fill="#7f00ff" id="svg_23"/>
  <polygon fill="#7f00ff" id="svg_24" points="109.5,25.5 109.5,25.5 109.5,25.5 109.5,25.5 109.5,25.5 109.5,25.5 109.5,25.5 109.5,25.5 109.5,25.5 109.5,25.5 109.5,25.5 109.5,25.5 " stroke-width="5"/>
  <polygon fill="#7f00ff" id="svg_25" points="169.5,-27.5 169.5,-27.5 169.5,-27.5 169.5,-27.5 169.5,-27.5 169.5,-27.5 169.5,-27.5 169.5,-27.5 169.5,-27.5 169.5,-27.5 169.5,-27.5 169.5,-27.5 " stroke-width="5"/>
  <polygon fill="#7f00ff" id="svg_26" points="169.5,-27.5 169.5,-27.5 169.5,-27.5 169.5,-27.5 169.5,-27.5 169.5,-27.5 169.5,-27.5 169.5,-27.5 169.5,-27.5 169.5,-27.5 169.5,-27.5 169.5,-27.5 " stroke-width="5"/>
  <polygon fill="#7f00ff" id="svg_27"/>
  <polygon fill="#7f00ff" id="svg_28" points="164.5,58.5 164.5,58.5 164.5,58.5 164.5,58.5 164.5,58.5 164.5,58.5 164.5,58.5 164.5,58.5 164.5,58.5 164.5,58.5 164.5,58.5 164.5,58.5 " stroke-width="5"/>
  <polygon fill="#7f00ff" id="svg_34"/>
  <polygon fill="#7f00ff" id="svg_35" points="166.5,90.5 166.5,90.5 166.5,90.5 166.5,90.5 166.5,90.5 166.5,90.5 166.5,90.5 166.5,90.5 166.5,90.5 166.5,90.5 166.5,90.5 166.5,90.5 " stroke-width="5"/>
  <polygon fill="#7f00ff" id="svg_36"/>
  <polygon fill="#7f00ff" id="svg_37" points="158.5,88.5 158.5,88.5 158.5,88.5 158.5,88.5 158.5,88.5 158.5,88.5 158.5,88.5 158.5,88.5 158.5,88.5 158.5,88.5 158.5,88.5 158.5,88.5 " stroke-width="5"/>
  <polygon fill="#7f00ff" id="svg_38"/>
  <polygon fill="#7f00ff" id="svg_39" points="160.5,100.5 160.5,100.5 160.5,100.5 160.5,100.5 160.5,100.5 160.5,100.5 160.5,100.5 160.5,100.5 160.5,100.5 160.5,100.5 160.5,100.5 160.5,100.5 " stroke-width="5"/>
  <polygon fill="#3f007f" id="svg_20"/>
  <text fill="#000000" font-family="serif" font-size="24" id="svg_33" stroke-dasharray="null" stroke-linecap="null" stroke-linejoin="null" stroke-width="0" text-anchor="middle" transform="matrix(6.48837 0 0 1 -1497.9 0)" x="267.5" xml:space="preserve" y="221.5"/>
  <text fill="#ffffff" font-family="Cursive" font-size="5" id="svg_44" stroke="#ff007f" stroke-dasharray="null" stroke-linecap="null" stroke-linejoin="null" stroke-width="0" text-anchor="middle" transform="matrix(7.0793 0 0 5.94641 -1562.86 -933.902)" x="250.5" xml:space="preserve" y="189.5">M.F.H.Q</text>
  <ellipse cx="183.5" cy="135.5" fill="#0000ff" id="svg_47" rx="100" ry="92" stroke="#00ffff" stroke-dasharray="null" stroke-linecap="null" stroke-linejoin="null" stroke-width="5"/>
  <text fill="#ffffff" font-family="Cursive" font-size="5" id="svg_49" stroke="#00ffff" stroke-dasharray="null" stroke-linecap="null" stroke-linejoin="null" stroke-width="0" text-anchor="middle" transform="matrix(9.47538 0 0 8.27431 -2114.78 -1122.86)" x="242.5" xml:space="preserve" y="153.5">M.F.H.Q</text>
 </g>
</svg>